<svg width="14" height="15" viewBox="0 0 14 15" fill="none" xmlns="http://www.w3.org/2000/svg">
<path d="M13.7854 13.0947L10.6117 9.921C11.3758 8.9038 11.7883 7.66566 11.7869 6.39344C11.7869 3.14382 9.14306 0.5 5.89344 0.5C2.64382 0.5 0 3.14382 0 6.39344C0 9.64306 2.64382 12.2869 5.89344 12.2869C7.16566 12.2883 8.4038 11.8758 9.421 11.1117L12.5947 14.2854C12.7554 14.429 12.9649 14.5057 13.1803 14.4997C13.3957 14.4936 13.6006 14.4054 13.753 14.253C13.9054 14.1006 13.9936 13.8957 13.9997 13.6803C14.0057 13.4649 13.929 13.2554 13.7854 13.0947ZM1.68384 6.39344C1.68384 5.56086 1.93073 4.74698 2.39329 4.05471C2.85584 3.36245 3.51329 2.82289 4.2825 2.50428C5.0517 2.18566 5.89811 2.1023 6.71469 2.26473C7.53127 2.42715 8.28135 2.82808 8.87008 3.4168C9.4588 4.00553 9.85973 4.75561 10.0222 5.57219C10.1846 6.38877 10.1012 7.23518 9.7826 8.00438C9.46399 8.77359 8.92443 9.43104 8.23217 9.89359C7.5399 10.3562 6.72602 10.603 5.89344 10.603C4.7774 10.6017 3.70745 10.1578 2.91828 9.3686C2.12912 8.57943 1.68518 7.50948 1.68384 6.39344Z" fill="#333333"/>
</svg>
